<svg xmlns="http://www.w3.org/2000/svg" viewBox="0 0 95 96" width="95" height="96" xmlns:c2pa="http://c2pa.org/manifest"><metadata><c2pa:manifest>AAAWgmp1bWIAAAAeanVtZGMycGEAEQAQgAAAqgA4m3EDYzJwYQAAABZcanVtYgAAAEdqdW1kYzJtYQARABCAAACqADibcQN1cm46YzJwYTozYjBhODU0MC0wNGYwLTQ3YTktOGRmMC05NDJhZmJmNzNjYWUAAAADl2p1bWIAAAApanVtZGMyYXMAEQAQgAAAqgA4m3EDYzJwYS5hc3NlcnRpb25zAAAAALxqdW1iAAAARGp1bWRjYm9yABEAEIAAAKoAOJtxE2MycGEuaW5ncmVkaWVudC52MwAAAAAYYzJzaIkzSqupZMjxgSqfRIuOHjgAAABwY2JvcqNpZGM6Zm9ybWF0bWltYWdlL3N2Zyt4bWxqaW5zdGFuY2VJRHgseG1wOmlpZDoxYWM2ZTkzNy0yZDM2LTQ3Y2MtYmNkYS0zZjUzYThiYjZiNjFscmVsYXRpb25zaGlwaHBhcmVudE9mAAAB4mp1bWIAAABBanVtZGNib3IAEQAQgAAAqgA4m3ETYzJwYS5hY3Rpb25zLnYyAAAAABhjMnNoi0Ah9OWqU6/rEi+7HhPXBAAAAZljYm9yomdhY3Rpb25zgqJmYWN0aW9ua2MycGEub3BlbmVkanBhcmFtZXRlcnOha2luZ3JlZGllbnRzgaJjdXJseC1zZWxmI2p1bWJmPWMycGEuYXNzZXJ0aW9ucy9jMnBhLmluZ3JlZGllbnQudjNkaGFzaFggDBYqCzoB8VP3qgq941ecrjOdKqaW6WF7OuTeNb/YiUOkZmFjdGlvbngdY29tLmFudGhyb3BpYy5jbGF1ZGUucHJvdmlkZWRqcGFyYW1ldGVyc6F4H2NvbS5hbnRocm9waWMub3JpZ2luLWNvbmZpZGVuY2VndW5rbm93bmtkZXNjcmlwdGlvbnhmQ2xhdWRlIHByb3ZpZGVkIHRoaXMgZmlsZSBhdCB0aGUgcmVxdWVzdCBvZiBhIHVzZXIgYW5kIG1heSBoYXZlIGNyZWF0ZWQgb3IgbW9kaWZpZWQgdGhlIGZpbGUgY29udGVudHMubXNvZnR3YXJlQWdlbnShZG5hbWVmQ2xhdWRlcmFsbEFjdGlvbnNJbmNsdWRlZPUAAADIanVtYgAAAEBqdW1kY2JvcgARABCAAACqADibcRNjMnBhLmhhc2guZGF0YQAAAAAYYzJzaFCHCxV2PFJzfH+ySVcw7DcAAACAY2JvcqVjYWxnZnNoYTI1NmNwYWRNAAAAAAAAAAAAAAAAAGRoYXNoWCALG9g42G57LmIcT/yAsEQ6aQBykzqkOQiLjzf598PB9GRuYW1lbmp1bWJmIG1hbmlmZXN0amV4Y2x1c2lvbnOBomVzdGFydBiSZmxlbmd0aBkeBAAAAj5qdW1iAAAAJ2p1bWRjMmNsABEAEIAAAKoAOJtxA2MycGEuY2xhaW0udjIAAAACD2Nib3KlY2FsZ2ZzaGEyNTZpc2lnbmF0dXJleE1zZWxmI2p1bWJmPS9jMnBhL3VybjpjMnBhOjNiMGE4NTQwLTA0ZjAtNDdhOS04ZGYwLTk0MmFmYmY3M2NhZS9jMnBhLnNpZ25hdHVyZWppbnN0YW5jZUlEeCx4bXA6aWlkOjI4NjdkZTg3LTQ2ZDUtNDExMi04OGZiLTdhOTY4YTY2YzY3N3JjcmVhdGVkX2Fzc2VydGlvbnODomN1cmx4LXNlbGYjanVtYmY9YzJwYS5hc3NlcnRpb25zL2MycGEuaW5ncmVkaWVudC52M2RoYXNoWCAMFioLOgHxU/eqCr3jV5yuM50qppbpYXs65N41v9iJQ6JjdXJseCpzZWxmI2p1bWJmPWMycGEuYXNzZXJ0aW9ucy9jMnBhLmFjdGlvbnMudjJkaGFzaFgg1uguBd0wWOmDfhKyh6/wRSv4e+vDYTGcexFfnCaLjAqiY3VybHgpc2VsZiNqdW1iZj1jMnBhLmFzc2VydGlvbnMvYzJwYS5oYXNoLmRhdGFkaGFzaFgg7q/NsbTE9WlhqqMmYUwmyQ7wfXSMko5fgsT7V9xEUA90Y2xhaW1fZ2VuZXJhdG9yX2luZm+jZG5hbWVvQW50aHJvcGljIEZpbGVzZ3ZlcnNpb25lMS4wLjBrc3BlY1ZlcnNpb25lMi40LjAAABA4anVtYgAAAChqdW1kYzJjcwARABCAAACqADibcQNjMnBhLnNpZ25hdHVyZQAAABAIY2JvctKEWQISogEmGCFZAgowggIGMIIBjaADAgECAhRA5aAK7sI50L64g/oGQgU9Z1UTADAKBggqhkjOPQQDAzBJMRcwFQYDVQQKEw5BbnRocm9waWMsIFBCQzEuMCwGA1UEAxMlQW50aHJvcGljIENvbnRlbnQgQ3JlZGVudGlhbHMgUm9vdCBDQTAeFw0yNjA4MDcxODQzNTZaFw0yODA4MDYxOTQzNTZaMEQxFzAVBgNVBAoTDkFudGhyb3BpYywgUEJDMSkwJwYDVQQDEyBBbnRocm9waWMgQ2xhdWRlIENvbnRlbnQgU2lnbmluZzBZMBMGByqGSM49AgEGCCqGSM49AwEHA0IABJh6CmvLUBgFFNU0vUKlOVtE6djd17L5SuwX0LemFisBM3dkd/3cyjxFA3Qo5S46fX0/ihY0VZ7mfb9KF703t5OjWDBWMA4GA1UdDwEB/wQEAwIHgDAVBgNVHSUEDjAMBgorBgEEAYPoXgIBMAwGA1UdEwEB/wQCMAAwHwYDVR0jBBgwFoAUzlHiBIFOZFsj+OPEz5o+nMHXXMIwCgYIKoZIzj0EAwMDZwAwZAIwMXMdFJ4BetLLVY7ORuE9noqbbAZOZn/aArXyTwFAZfKrPzxF2vPoJNf1+UCdg1XGAjBwX1zd9WGqYkqmL5SFqw1QySjr1zJfpJM9+1rdDwSPLMOPOjKuiXjoU/pUUeG9RwmhY3BhZFkNngAAAAAAAAAAAAAAAAAAAAAAAAAAAAAAAAAAAAAAAAAAAAAAAAAAAAAAAAAAAAAAAAAAAAAAAAAAAAAAAAAAAAAAAAAAAAAAAAAAAAAAAAAAAAAAAAAAAAAAAAAAAAAAAAAAAAAAAAAAAAAAAAAAAAAAAAAAAAAAAAAAAAAAAAAAAAAAAAAAAAAAAAAAAAAAAAAAAAAAAAAAAAAAAAAAAAAAAAAAAAAAAAAAAAAAAAAAAAAAAAAAAAAAAAAAAAAAAAAAAAAAAAAAAAAAAAAAAAAAAAAAAAAAAAAAAAAAAAAAAAAAAAAAAAAAAAAAAAAAAAAAAAAAAAAAAAAAAAAAAAAAAAAAAAAAAAAAAAAAAAAAAAAAAAAAAAAAAAAAAAAAAAAAAAAAAAAAAAAAAAAAAAAAAAAAAAAAAAAAAAAAAAAAAAAAAAAAAAAAAAAAAAAAAAAAAAAAAAAAAAAAAAAAAAAAAAAAAAAAAAAAAAAAAAAAAAAAAAAAAAAAAAAAAAAAAAAAAAAAAAAAAAAAAAAAAAAAAAAAAAAAAAAAAAAAAAAAAAAAAAAAAAAAAAAAAAAAAAAAAAAAAAAAAAAAAAAAAAAAAAAAAAAAAAAAAAAAAAAAAAAAAAAAAAAAAAAAAAAAAAAAAAAAAAAAAAAAAAAAAAAAAAAAAAAAAAAAAAAAAAAAAAAAAAAAAAAAAAAAAAAAAAAAAAAAAAAAAAAAAAAAAAAAAAAAAAAAAAAAAAAAAAAAAAAAAAAAAAAAAAAAAAAAAAAAAAAAAAAAAAAAAAAAAAAAAAAAAAAAAAAAAAAAAAAAAAAAAAAAAAAAAAAAAAAAAAAAAAAAAAAAAAAAAAAAAAAAAAAAAAAAAAAAAAAAAAAAAAAAAAAAAAAAAAAAAAAAAAAAAAAAAAAAAAAAAAAAAAAAAAAAAAAAAAAAAAAAAAAAAAAAAAAAAAAAAAAAAAAAAAAAAAAAAAAAAAAAAAAAAAAAAAAAAAAAAAAAAAAAAAAAAAAAAAAAAAAAAAAAAAAAAAAAAAAAAAAAAAAAAAAAAAAAAAAAAAAAAAAAAAAAAAAAAAAAAAAAAAAAAAAAAAAAAAAAAAAAAAAAAAAAAAAAAAAAAAAAAAAAAAAAAAAAAAAAAAAAAAAAAAAAAAAAAAAAAAAAAAAAAAAAAAAAAAAAAAAAAAAAAAAAAAAAAAAAAAAAAAAAAAAAAAAAAAAAAAAAAAAAAAAAAAAAAAAAAAAAAAAAAAAAAAAAAAAAAAAAAAAAAAAAAAAAAAAAAAAAAAAAAAAAAAAAAAAAAAAAAAAAAAAAAAAAAAAAAAAAAAAAAAAAAAAAAAAAAAAAAAAAAAAAAAAAAAAAAAAAAAAAAAAAAAAAAAAAAAAAAAAAAAAAAAAAAAAAAAAAAAAAAAAAAAAAAAAAAAAAAAAAAAAAAAAAAAAAAAAAAAAAAAAAAAAAAAAAAAAAAAAAAAAAAAAAAAAAAAAAAAAAAAAAAAAAAAAAAAAAAAAAAAAAAAAAAAAAAAAAAAAAAAAAAAAAAAAAAAAAAAAAAAAAAAAAAAAAAAAAAAAAAAAAAAAAAAAAAAAAAAAAAAAAAAAAAAAAAAAAAAAAAAAAAAAAAAAAAAAAAAAAAAAAAAAAAAAAAAAAAAAAAAAAAAAAAAAAAAAAAAAAAAAAAAAAAAAAAAAAAAAAAAAAAAAAAAAAAAAAAAAAAAAAAAAAAAAAAAAAAAAAAAAAAAAAAAAAAAAAAAAAAAAAAAAAAAAAAAAAAAAAAAAAAAAAAAAAAAAAAAAAAAAAAAAAAAAAAAAAAAAAAAAAAAAAAAAAAAAAAAAAAAAAAAAAAAAAAAAAAAAAAAAAAAAAAAAAAAAAAAAAAAAAAAAAAAAAAAAAAAAAAAAAAAAAAAAAAAAAAAAAAAAAAAAAAAAAAAAAAAAAAAAAAAAAAAAAAAAAAAAAAAAAAAAAAAAAAAAAAAAAAAAAAAAAAAAAAAAAAAAAAAAAAAAAAAAAAAAAAAAAAAAAAAAAAAAAAAAAAAAAAAAAAAAAAAAAAAAAAAAAAAAAAAAAAAAAAAAAAAAAAAAAAAAAAAAAAAAAAAAAAAAAAAAAAAAAAAAAAAAAAAAAAAAAAAAAAAAAAAAAAAAAAAAAAAAAAAAAAAAAAAAAAAAAAAAAAAAAAAAAAAAAAAAAAAAAAAAAAAAAAAAAAAAAAAAAAAAAAAAAAAAAAAAAAAAAAAAAAAAAAAAAAAAAAAAAAAAAAAAAAAAAAAAAAAAAAAAAAAAAAAAAAAAAAAAAAAAAAAAAAAAAAAAAAAAAAAAAAAAAAAAAAAAAAAAAAAAAAAAAAAAAAAAAAAAAAAAAAAAAAAAAAAAAAAAAAAAAAAAAAAAAAAAAAAAAAAAAAAAAAAAAAAAAAAAAAAAAAAAAAAAAAAAAAAAAAAAAAAAAAAAAAAAAAAAAAAAAAAAAAAAAAAAAAAAAAAAAAAAAAAAAAAAAAAAAAAAAAAAAAAAAAAAAAAAAAAAAAAAAAAAAAAAAAAAAAAAAAAAAAAAAAAAAAAAAAAAAAAAAAAAAAAAAAAAAAAAAAAAAAAAAAAAAAAAAAAAAAAAAAAAAAAAAAAAAAAAAAAAAAAAAAAAAAAAAAAAAAAAAAAAAAAAAAAAAAAAAAAAAAAAAAAAAAAAAAAAAAAAAAAAAAAAAAAAAAAAAAAAAAAAAAAAAAAAAAAAAAAAAAAAAAAAAAAAAAAAAAAAAAAAAAAAAAAAAAAAAAAAAAAAAAAAAAAAAAAAAAAAAAAAAAAAAAAAAAAAAAAAAAAAAAAAAAAAAAAAAAAAAAAAAAAAAAAAAAAAAAAAAAAAAAAAAAAAAAAAAAAAAAAAAAAAAAAAAAAAAAAAAAAAAAAAAAAAAAAAAAAAAAAAAAAAAAAAAAAAAAAAAAAAAAAAAAAAAAAAAAAAAAAAAAAAAAAAAAAAAAAAAAAAAAAAAAAAAAAAAAAAAAAAAAAAAAAAAAAAAAAAAAAAAAAAAAAAAAAAAAAAAAAAAAAAAAAAAAAAAAAAAAAAAAAAAAAAAAAAAAAAAAAAAAAAAAAAAAAAAAAAAAAAAAAAAAAAAAAAAAAAAAAAAAAAAAAAAAAAAAAAAAAAAAAAAAAAAAAAAAAAAAAAAAAAAAAAAAAAAAAAAAAAAAAAAAAAAAAAAAAAAAAAAAAAAAAAAAAAAAAAAAAAAAAAAAAAAAAAAAAAAAAAAAAAAAAAAAAAAAAAAAAAAAAAAAAAAAAAAAAAAAAAAAAAAAAAAAAAAAAAAAAAAAAAAAAAAAAAAAAAAAAAAAAAAAAAAAAAAAAAAAAAAAAAAAAAAAAAAAAAAAAAAAAAAAAAAAAAAAAAAAAAAAAAAAAAAAAAAAAAAAAAAAAAAAAAAAAAAAAAAAAAAAAAAAAAAAAAAAAAAAAAAAAAAAAAAAAAAAAAAAAAAAAAAAAAAAAAAAAAAAAAAAAAAAAAAAAAAAAAAAAAAAAAAAAAAAAAAAAAAAAAAAAAAAAAAAAAAAAAAAAAAAAAAAAAAAAAAAAAAAAAAAAAAAAAAAAAAAAAAAAAAAAAAAAAAAAAAAAAAAAAAAAAAAAAAAAAAAAAAAAAAAAAAAAAAAAAAAAAAAAAAAAAAAAAAAAAAAAAAAAAAAAAAAAAAAAAAAAAAAAAAAAAAAAAAAAAAAAAAAAAAAAAAAAAAAAAAAAAAAAAAAAAAAAAAAAAAAAAAAAAAAAAAAAAAAAAAAAAAAAAAAAAAAAAAAAAAAAAAAAAAAAAAAAAAAAAAAAAAAAAAAAAAAAAAAAAAAAAAAAAAAAAAAAAAAAAAAAAAAAAAAAAAAAAAAAAAAAAAAAAAAAAAAAAAAAAAAAAAAAAAAAAAAAAAAAAAAAAAAAAAAAAAAAAAAAAAAAAAAAAAAAAAAAAAAAAAAAAAAAAAAAAAAAAAAAAAAAAAAAAAAAAAAAAAAAAAAAAAAAAAAAAAAAAAAAAAAAAAAAAAAAAAAAAAAAAAAAAAAAAAAAAAAAAAAAAAAAAAAAAAAAAAAAAAAAAAAAAAAAAAAAAAAAAAAAAAAAAAAAAAAAAAAAAAAAAAAAAAAAAAAAAAAAAAAAAAAAAAAAAAAAAAAAAAAAAAAAAAAAAAAAAAAAAAAAAAAAAAAAAAAAAAAAAAAAAAAAAAAAAAAAAAAAAAAAAAAAAAAAAAAAAAAAAAAAAAAAAAAAAAAAAAAAAAAAAAAAAAAAAAAAAAAAAAAAAAAAAAAAAAAAAAAAAAAAAAAAAAAAAAAAAAAAAAAAAAAAAAAAAAAAAAAAAAAAAAAAAAAAAAAAAAAAAAAAAAAAAAAAAAAAAAAAAAAAAAAAAAAAAAAAAAAAAAAAAAAAAAAAAAAAAAAAAAAAAAAAAAAAAAAAAAAAAAAAAAAAAAAAAAAAAAAAAAAAAAAAAAAAAAAAAAAAAAAAAAAAAAAAAAAAAAAAAAAAAAAAAAAAAAAAAAAAAAAAAAAAAAAAAAAAAAAAAAAAAAAAAAAAAAAAAAAAAAAAAAAAAAAAAAAAAAAAAAAAAAAAAAAAAAAAAAAAAAAAAAAAAAAAAAAAAAAAAAAAAAAAAAAAAAAAAAAAAAAAAAAAAAAAAAAAAAAAAAAAAAAAAAAAAAAAAAAAAAAAAAAAAAAAAAAAAAAAAAAAAAAAAAAAAAAAAAAPZYQGWqODVBl9dhiYR1BemK1owHxcS+pwnfxynL4DE9J/BsqUwqPO62EZcCcm+gRkhZX5jU79kjI7z/6k0FU1J3lO0=</c2pa:manifest></metadata>
  <!-- Silhouette combinée : contour extérieur + 2 trous (evenodd) -->
  <path d="M 39.62 15.00 C 37.54 15.42 37.50 16.00 37.00 17.62 C 36.50 19.25 37.08 23.35 36.62 24.75 C 36.17 26.15 35.25 25.79 34.25 26.00 C 33.25 26.21 32.06 26.67 30.62 26.00 C 29.19 25.33 27.71 21.44 25.62 22.00 C 23.54 22.56 19.56 27.50 18.12 29.38 C 16.69 31.25 16.38 31.75 17.00 33.25 C 17.62 34.75 21.04 36.88 21.88 38.38 C 22.71 39.88 22.23 41.17 22.00 42.25 C 21.77 43.33 21.73 44.42 20.50 44.88 C 19.27 45.33 16.02 44.58 14.62 45.00 C 13.23 45.42 12.40 45.33 12.12 47.38 C 11.85 49.42 12.25 54.83 13.00 57.25 C 13.75 59.67 15.02 61.60 16.62 61.88 C 18.23 62.15 21.27 59.31 22.62 58.88 C 23.98 58.44 23.88 58.50 24.75 59.25 C 25.62 60.00 27.33 62.38 27.88 63.38 C 28.42 64.38 28.65 63.77 28.00 65.25 C 27.35 66.73 23.44 70.17 24.00 72.25 C 24.56 74.33 29.00 76.48 31.38 77.75 C 33.75 79.02 36.25 80.83 38.25 79.88 C 40.25 78.92 41.56 73.33 43.38 72.00 C 45.19 70.67 47.67 70.79 49.12 71.88 C 50.58 72.96 51.10 77.17 52.12 78.50 C 53.15 79.83 53.17 80.35 55.25 79.88 C 57.33 79.40 62.94 77.10 64.62 75.62 C 66.31 74.15 64.60 71.79 65.38 71.00 C 66.15 70.21 67.77 71.23 69.25 70.88 C 70.73 70.52 72.50 69.94 74.25 68.88 C 76.00 67.81 78.31 66.27 79.75 64.50 C 81.19 62.73 82.35 60.23 82.88 58.25 C 83.40 56.27 83.21 53.96 82.88 52.62 C 82.54 51.29 81.21 51.08 80.88 50.25 C 80.54 49.42 80.58 48.62 80.88 47.62 C 81.17 46.62 82.75 45.35 82.62 44.25 C 82.50 43.15 81.62 41.38 80.12 41.00 C 78.62 40.62 75.12 42.06 73.62 42.00 C 72.12 41.94 71.92 41.58 71.12 40.62 C 70.33 39.67 69.25 37.58 68.88 36.25 C 68.50 34.92 68.40 33.75 68.88 32.62 C 69.35 31.50 71.25 30.50 71.75 29.50 C 72.25 28.50 72.75 27.85 71.88 26.62 C 71.00 25.40 68.04 23.23 66.50 22.12 C 64.96 21.02 63.96 19.54 62.62 20.00 C 61.29 20.46 60.00 24.04 58.50 24.88 C 57.00 25.71 54.73 25.27 53.62 25.00 C 52.52 24.73 52.17 24.48 51.88 23.25 C 51.58 22.02 52.27 18.98 51.88 17.62 C 51.48 16.27 51.54 15.56 49.50 15.12 C 47.46 14.69 41.71 14.58 39.62 15.00 Z M 64.62 47.88 C 65.42 47.73 67.46 47.73 68.25 47.88 C 69.04 48.02 69.00 48.56 69.38 48.75 C 69.75 48.94 69.92 48.56 70.50 49.00 C 71.08 49.44 72.44 50.79 72.88 51.38 C 73.31 51.96 72.94 52.12 73.12 52.50 C 73.31 52.88 73.88 52.79 74.00 53.62 C 74.12 54.46 74.19 56.54 73.88 57.50 C 73.56 58.46 72.44 58.94 72.12 59.38 C 71.81 59.81 72.08 59.90 72.00 60.12 C 71.92 60.35 71.90 60.58 71.62 60.75 C 71.35 60.92 70.77 60.92 70.38 61.12 C 69.98 61.33 70.42 61.88 69.25 62.00 C 68.08 62.12 64.75 62.29 63.38 61.88 C 62.00 61.46 61.44 60.08 61.00 59.50 C 60.56 58.92 60.92 58.71 60.75 58.38 C 60.58 58.04 60.17 57.83 60.00 57.50 C 59.83 57.17 59.94 56.75 59.75 56.38 C 59.56 56.00 59.02 55.71 58.88 55.25 C 58.73 54.79 58.56 54.25 58.88 53.62 C 59.19 53.00 60.40 52.04 60.75 51.50 C 61.10 50.96 60.73 50.79 61.00 50.38 C 61.27 49.96 61.96 49.27 62.38 49.00 C 62.79 48.73 63.12 48.94 63.50 48.75 C 63.88 48.56 63.83 48.02 64.62 47.88 Z M 42.62 35.88 C 44.08 35.56 47.08 35.71 48.25 35.88 C 49.42 36.04 49.12 36.71 49.62 36.88 C 50.12 37.04 50.35 36.25 51.25 36.88 C 52.15 37.50 54.38 39.56 55.00 40.62 C 55.62 41.69 55.31 42.46 55.00 43.25 C 54.69 44.04 53.48 44.83 53.12 45.38 C 52.77 45.92 53.23 45.79 52.88 46.50 C 52.52 47.21 51.33 47.62 51.00 49.62 C 50.67 51.62 51.02 56.94 50.88 58.50 C 50.73 60.06 50.67 58.92 50.12 59.00 C 49.58 59.08 48.27 58.83 47.62 59.00 C 46.98 59.17 46.92 59.83 46.25 60.00 C 45.58 60.17 44.29 60.17 43.62 60.00 C 42.96 59.83 42.75 59.17 42.25 59.00 C 41.75 58.83 41.25 59.31 40.62 59.00 C 40.00 58.69 39.04 57.48 38.50 57.12 C 37.96 56.77 37.96 57.31 37.38 56.88 C 36.79 56.44 35.44 55.08 35.00 54.50 C 34.56 53.92 34.94 53.75 34.75 53.38 C 34.56 53.00 34.02 52.71 33.88 52.25 C 33.73 51.79 34.04 51.12 33.88 50.62 C 33.71 50.12 33.04 49.92 32.88 49.25 C 32.71 48.58 32.71 47.29 32.88 46.62 C 33.04 45.96 33.71 45.75 33.88 45.25 C 34.04 44.75 33.73 44.08 33.88 43.62 C 34.02 43.17 34.56 42.88 34.75 42.50 C 34.94 42.12 34.40 42.12 35.00 41.38 C 35.60 40.62 37.62 38.60 38.38 38.00 C 39.12 37.40 38.79 38.10 39.50 37.75 C 40.21 37.40 41.17 36.19 42.62 35.88 Z" fill="#066547" fill-rule="evenodd"/>
  <!-- Séparation visuelle du petit engrenage (liseré) -->
  <path d="M 79.10 54.80 C 79.10 56.14 81.58 56.99 81.27 58.81 C 80.97 60.64 78.69 64.58 77.26 65.76 C 75.83 66.94 73.86 65.22 72.70 65.89 C 71.54 66.55 72.05 69.12 70.31 69.77 C 68.58 70.42 64.02 70.42 62.29 69.77 C 60.55 69.12 61.06 66.55 59.90 65.89 C 58.74 65.22 56.77 66.94 55.34 65.76 C 53.91 64.58 51.63 60.64 51.33 58.81 C 51.02 56.99 53.50 56.14 53.50 54.80 C 53.50 53.46 51.02 52.61 51.33 50.79 C 51.63 48.96 53.91 45.02 55.34 43.84 C 56.77 42.66 58.74 44.38 59.90 43.71 C 61.06 43.05 60.55 40.48 62.29 39.83 C 64.02 39.18 68.58 39.18 70.31 39.83 C 72.05 40.48 71.54 43.05 72.70 43.71 C 73.86 44.38 75.83 42.66 77.26 43.84 C 78.69 45.02 80.97 48.96 81.27 50.79 C 81.58 52.61 79.10 53.46 79.10 54.80 Z" fill="none" stroke="#FFFFFF" stroke-width="1.3"/>
</svg>